<?xml version="1.0" encoding="UTF-8" standalone="no"?>
<!-- Created with Inkscape (http://www.inkscape.org/) -->

<svg width="9.5059996mm" height="7.8092546mm" viewBox="0 0 9.5059996 7.8092546" version="1.1" id="svg1" xml:space="preserve" xmlns="http://www.w3.org/2000/svg" xmlns:svg="http://www.w3.org/2000/svg"><defs id="defs1" /><g id="layer1" transform="translate(-50.747358,-43.132968)"><g id="g2" transform="matrix(0.13842696,0,0,0.13842696,75.92573,36.714082)"><path style="fill:#ffbc00;fill-opacity:1;stroke:none;stroke-width:0.753123px;stroke-linecap:butt;stroke-linejoin:miter;stroke-opacity:1" d="m -180.6654,91.20518 c 0.47071,-1.129685 8.8492,-10.637867 8.8492,-10.637867 l 1.12969,-9.13162 4.4246,-10.355446 6.58983,-6.77811 9.60232,-5.083582 7.9078,-0.470702 8.47263,0.847263 6.30741,4.236319 4.80116,2.25937 2.73008,3.953898 4.04803,6.119127 2.07109,8.660918 -0.4707,5.177723 -2.91835,6.96639 -28.43041,9.508182 -15.81559,5.742567 -13.17966,-4.330459 z" id="path74" /><path style="color:#000000;fill:#000000;stroke-width:0.753123" d="m -148.37759,46.376034 c -0.41633,-0.02606 -0.89272,0.03359 -1.34151,0.211816 -0.0783,0.03095 -0.13465,0.07192 -0.21181,0.105911 -1.76706,0.850646 -2.94771,2.124426 -3.848,3.353749 -0.0608,0.07896 -0.11621,0.167826 -0.1765,0.247122 -10.2214,4.235641 -17.55588,14.054969 -18.14557,25.629729 -0.0255,0.500382 -0.0353,1.011384 -0.0353,1.51801 0,0.347152 0.0274,0.628241 0.0353,0.88257 0.009,0.291527 0.0212,0.588468 0.0353,0.882563 -0.12641,0.206807 -0.2459,0.410083 -0.35303,0.635448 l -7.9784,7.625373 v 0.03532 c -1.13247,1.132456 -1.56314,2.585992 -1.48271,3.953897 0.0804,1.367883 0.6445,2.646061 1.44741,3.600864 2.91993,3.472802 7.55797,6.491264 13.41501,7.307654 3.42098,0.47683 7.58546,0.68512 10.44958,-0.14121 l 9.81414,-3.459661 20.50938,-5.789636 -0.0353,-0.03532 c 7.51263,-2.274884 12.42653,-6.021612 12.42653,-10.273069 0,-0.218496 -0.0438,-0.422653 -0.0706,-0.635448 0.0208,-0.04828 0.0509,-0.09286 0.0706,-0.14121 0.20665,-0.504924 0.35173,-1.025302 0.45894,-1.553317 0.0324,-0.159346 0.0129,-0.201574 0,-0.17651 v -0.03532 c 0.055,-0.60268 0.0879,-1.20502 0.1059,-1.800432 0.008,-0.254186 0.0706,-0.53535 0.0706,-0.88257 0,-7.812901 -3.08993,-14.930293 -8.08283,-20.193119 0.13246,-0.207885 0.23808,-0.51717 0.24712,-0.88257 0.009,-0.365371 -0.0568,-0.781305 -0.24712,-1.235589 -0.19029,-0.454322 -0.51768,-0.921936 -0.95317,-1.341501 -0.33476,-0.312464 -0.70554,-0.599494 -1.12969,-0.811965 -0.68181,-0.341572 -1.4185,-0.551271 -2.11816,-0.670747 -0.5554,-0.09772 -1.09696,-0.158103 -1.62392,-0.176517 -0.19598,-0.0068 -0.37284,-0.0022 -0.56484,0 -0.85435,-0.504871 -1.74072,-0.95844 -2.6477,-1.3768 0.0995,-0.155512 0.17032,-0.321192 0.17651,-0.529543 0.008,-0.266064 -0.0463,-0.574475 -0.21181,-0.882563 -0.16544,-0.308058 -0.43592,-0.610723 -0.77666,-0.88257 -0.34078,-0.271825 -0.75669,-0.525967 -1.2356,-0.670747 -0.48513,-0.146678 -0.98068,-0.251754 -1.48271,-0.317728 -0.2789,-0.03186 -0.53801,-0.02523 -0.81196,-0.03532 -1.73745,-0.06515 -3.38721,0.258208 -4.87177,0.776658 -0.0348,-0.0038 -0.0713,0.0038 -0.10591,0 -0.49476,-0.05016 -0.98098,-0.0806 -1.48271,-0.105911 -0.50163,-0.02546 -1.00998,-0.03532 -1.51795,-0.03532 -1.36226,0 -2.53463,0.03299 -3.848,0.211816 -0.026,-0.209315 0.005,-0.3841 -0.0706,-0.635448 -0.0198,-0.115529 -0.0819,-0.238687 -0.14121,-0.353026 -0.11867,-0.228671 -0.31208,-0.468488 -0.60014,-0.635448 -0.28804,-0.166945 -0.64279,-0.256326 -1.05908,-0.282421 z m 5.71903,3.036028 c 0.0828,0 0.16452,-7.14e-4 0.24711,0 -4.8938,2.391468 -8.91745,6.31149 -11.40275,10.97913 -0.2249,0.422449 -0.23676,0.858779 0,0.988474 0.23675,0.129688 0.55753,-0.111718 0.81195,-0.494237 3.25937,-4.90028 8.3206,-8.474904 13.80335,-9.884743 1.69082,-0.411929 3.35759,-0.652665 4.76585,-0.282422 0.31536,0.07448 0.6195,0.192483 0.91787,0.317721 0.29451,0.123632 0.59618,0.189576 0.88257,0.247122 0.0102,0.0038 0.0254,-0.0038 0.0353,0 0.71145,0.272947 1.43606,0.554894 2.11816,0.882562 0.0765,0.03668 0.13571,0.103818 0.21182,0.141211 -3.2538,0.377044 -6.37436,1.303958 -9.3199,2.541791 -5.93356,2.484479 -11.25177,6.246142 -15.49787,10.943824 -0.43838,0.484732 -0.65788,1.017808 -0.45894,1.20029 0.19894,0.182489 0.70425,-0.05219 1.165,-0.494237 4.46519,-4.284368 9.83409,-7.551101 15.60377,-9.496411 3.33656,-1.119894 6.80196,-1.822679 10.20246,-1.765133 0.87393,0.01951 1.6925,0.08745 2.40058,0.282422 0.43721,0.124468 0.85536,0.258953 1.20029,0.45893 0.21456,0.124401 0.38789,0.236586 0.56485,0.353027 0.27795,0.168315 0.54692,0.353591 0.81196,0.529544 5.21192,4.810793 8.58354,11.583985 8.96688,19.134031 0.0243,0.477571 0.0353,0.963833 0.0353,1.447413 0,0.243289 -0.0252,0.515257 -0.0353,0.847264 -0.0176,0.584424 -0.0548,1.136237 -0.10591,1.694527 -0.004,0.0427 -0.0136,0.13786 0,0.07057 -0.0893,0.439003 -0.21177,0.874821 -0.38833,1.306195 -0.0888,0.216839 -0.20996,0.460308 -0.31773,0.670754 -0.10777,0.210445 -0.22295,0.391059 -0.35302,0.600141 -0.26043,0.418669 -0.5374,0.862936 -0.88257,1.270896 -0.34283,0.405316 -0.74011,0.809186 -1.16499,1.200297 -0.42759,0.393568 -0.88215,0.763585 -1.3768,1.129685 -0.49717,0.367977 -1.05305,0.713238 -1.62392,1.059073 -0.571,0.345969 -1.16661,0.706843 -1.80044,1.02378 -1.26901,0.634484 -2.6606,1.186094 -4.16571,1.694528 -0.75225,0.254096 -1.52609,0.486804 -2.32998,0.706053 -0.80388,0.219249 -1.6237,0.420898 -2.47118,0.600149 -1.69702,0.358878 -3.48216,0.658132 -5.3307,0.847264 -1.84832,0.189094 -3.75504,0.282421 -5.71903,0.282421 -0.982,0 -1.97381,-0.025 -2.93013,-0.07064 -0.95631,-0.04564 -1.90005,-0.117261 -2.82421,-0.211808 -1.84854,-0.189147 -3.63368,-0.488378 -5.3307,-0.847264 -1.69505,-0.358487 -3.29672,-0.797995 -4.80116,-1.306202 -1.50602,-0.50872 -2.89806,-1.060699 -4.16571,-1.694528 -0.63383,-0.316921 -1.22942,-0.677803 -1.80044,-1.02378 -0.56776,-0.343967 -1.12317,-0.688483 -1.62392,-1.059073 -0.49824,-0.368759 -0.95325,-0.739815 -1.3768,-1.129684 -0.42086,-0.387377 -0.81788,-0.789982 -1.16499,-1.200298 -0.34516,-0.407997 -0.62211,-0.852227 -0.88257,-1.270896 -0.26422,-0.424746 -0.49663,-0.845434 -0.67075,-1.270896 -0.17656,-0.431396 -0.3345,-0.867199 -0.42363,-1.306194 0.0135,0.06643 0.004,-0.02877 0,-0.07057 -0.002,-0.0299 0.0156,0.0494 0,-0.03532 -0.0478,-0.54179 -0.0534,-1.092873 -0.0706,-1.659221 -0.0102,-0.331902 -0.0353,-0.603922 -0.0353,-0.847264 0,-10.830667 6.16225,-20.228049 15.18015,-24.888369 -2.71788,4.026115 -4.81322,8.421425 -6.21327,12.991378 -0.12168,0.397174 -0.0429,0.758018 0.21182,0.847263 0.25478,0.08924 0.54418,-0.156145 0.70605,-0.529543 2.25214,-5.195271 5.43056,-9.919952 9.28459,-13.909247 0.66921,-0.656603 1.27696,-1.251412 1.90635,-1.659221 2.24438,-0.575371 4.60017,-0.88257 7.02523,-0.88257 z m -25.05901,29.471832 c -0.24636,0.04662 -0.39421,0.249954 -0.39421,0.606031 v 2.718301 c 0,0.63303 0.49665,1.484843 1.12968,1.871044 l 5.82641,3.530266 c 0.63303,0.386202 1.12969,0.209398 1.12969,-0.423632 v -2.753607 c 0,-0.63303 -0.49666,-1.449536 -1.12969,-1.835738 l -5.82641,-3.530266 c -0.15826,-0.09659 -0.32213,-0.150722 -0.45893,-0.176509 -0.1026,-0.01936 -0.19442,-0.02146 -0.27654,-0.006 z m -4.20543,6.007334 c 0.83055,1.066505 1.47874,1.803286 2.50502,2.683002 3.21237,2.753735 7.23895,4.461939 11.36893,5.683731 3.64406,1.078095 7.40796,1.815592 11.18947,2.188765 l -13.02668,4.377529 c -2.72179,0.220805 -5.64671,-0.113459 -8.36526,-0.917869 -4.72585,-1.599633 -8.78547,-3.698618 -10.6261,-7.731278 z" id="path65" /></g></g></svg>
